<?xml version="1.0" encoding="utf-8"?>
<!-- Generator: Adobe Illustrator 25.3.0, SVG Export Plug-In . SVG Version: 6.00 Build 0)  -->
<svg version="1.1" id="Layer_1" xmlns="http://www.w3.org/2000/svg" xmlns:xlink="http://www.w3.org/1999/xlink" x="0px" y="0px"
	 viewBox="0 0 500 222.75" style="enable-background:new 0 0 500 222.75;" xml:space="preserve">
<style type="text/css">
	.st0{fill:#E23731;}
	.st1{fill:#25598A;}
	.st2{fill:#FFFFFF;}
	.st3{fill:#211F1F;}
	.st4{fill-rule:evenodd;clip-rule:evenodd;fill:#EB1F26;}
	.st5{clip-path:url(#SVGID_2_);fill:#FFFFFF;}
</style>
<g id="XMLID_76_">
	<path id="XMLID_127_" class="st0" d="M276.72,29.34c0,16.2-13.14,29.34-29.34,29.34c-8.07,0-15.37-3.25-20.67-8.52
		c-2.23-2.22-4.11-4.79-5.54-7.62c-2-3.97-3.13-8.45-3.13-13.2C218.04,13.14,231.18,0,247.38,0c6.91,0,13.27,2.39,18.28,6.39
		c1.94,1.54,3.67,3.33,5.17,5.31C274.53,16.61,276.72,22.72,276.72,29.34z"/>
	<path id="XMLID_126_" class="st1" d="M0,200.55c0,0,30.44,0.17,30.44-37.79s0-128.87,0-128.87s-1.16-6.44,6.89-6.44
		s24.34,0,24.34,0L72.6,54.93v98.67c0,0,2.15,32.3-12.09,46.94C45.4,216.1,20.42,220.26,0,200.55z"/>
	<path id="XMLID_125_" class="st1" d="M66.83,27.46l48.39,132.7c0,0,1.86,6.81,10.89,6.81s32.92,0,32.92,0s8.29,0.5,11.63-9.03
		S212.98,42.1,212.98,42.1V27.46h-25.25c0,0-16.34-1.44-20.17,11.8c-3.84,13.24-24.94,83.04-24.94,83.04l-24.75-83.1
		c0,0-2.48-12.15-18.56-11.74H66.83z"/>
	<path id="XMLID_124_" class="st1" d="M226.22,57.42c0,0,8.79,6.9,21.84,6.9c13.06,0,20.48-6.68,20.48-6.68v102.19
		c0,0-0.15,6.99-6.93,6.99c-6.78,0-29.11,0-29.11,0s-6.28-0.03-6.28-5.82S226.22,57.42,226.22,57.42z"/>
	<path id="XMLID_123_" class="st2" d="M270.83,11.7c-0.63,0.25-1.45,0.68-2.45,1.45c-2.43,1.86-6.64,6.39-8.45,15.18
		c0,0-3.55,17.78-9.41,15.84c-4.17-1.44-6.48-13.37-6.48-13.37s-3.65,20.43-17.33,19.36c-2.23-2.22-4.11-4.79-5.54-7.62
		c1.73,1.02,4.39,2.13,7.59,1.85c5.69-0.5,9.59-9.96,11.32-20.3c0,0,1.03-3.05-1.92-5.16c0,0,4.58-1.26,6.19-0.48
		c1.61,0.78,2.64,3.28,3.2,5.32s3.75,14.13,3.75,14.13s3.22-8.97,5.16-17.02c1.51-6.26,6.57-12.03,9.2-14.51
		C267.6,7.93,269.33,9.72,270.83,11.7z"/>
	<path id="XMLID_121_" class="st3" d="M102.8,187.76l-3.34,17.26c-0.53,2.73-2.2,10.26-10.16,10.26c-9.08,0-7.55-8-7.55-8l4.91-0.52
		c0,0-0.93,3.98,3.07,4.02c3.53,0.08,4.29-5.35,4.56-6.72l3.22-16.3H102.8z"/>
	<path id="XMLID_118_" class="st3" d="M119.45,214.87h-5.11c-0.03-0.99,0.05-1.43-0.4-2.28c-1.99,2.38-3.53,2.68-6.04,2.68
		c-1.75,0-4.91-1.92-4.91-5.34c0-3.53,1.07-5.09,4.74-6.48c2.06-0.7,4.19-0.37,8-1.02l0.21-0.79c0.37-1.59-0.36-2.89-2.23-3.07
		c-2.41-0.23-3.27,1.47-3.44,2.43l-5.13-0.52c1-3.42,3.47-5.61,9.06-5.61c4.55,0,6.83,2.03,6.83,5.22c0,0.51-0.16,1.66-0.49,3.45
		l-1.45,7.49C118.85,212.25,119.24,214.06,119.45,214.87z M114.82,205.93c-4,0-6.97,1.16-7.1,3.26c0,1.77,1.36,2.36,3.14,2.36
		C114.82,211.46,114.82,205.93,114.82,205.93z"/>
	<path id="XMLID_115_" class="st3" d="M162.84,214.87h-5.11c-0.03-0.99,0.05-1.43-0.4-2.28c-1.99,2.38-3.53,2.68-6.04,2.68
		c-1.75,0-4.91-1.92-4.91-5.34c0-3.53,1.07-5.09,4.74-6.48c2.06-0.7,4.19-0.37,8-1.02l0.21-0.79c0.37-1.59-0.36-2.89-2.23-3.07
		c-2.41-0.23-3.27,1.47-3.44,2.43l-5.13-0.52c1-3.42,3.47-5.61,9.06-5.61c4.55,0,6.83,2.03,6.83,5.22c0,0.51-0.16,1.66-0.49,3.45
		l-1.45,7.49C162.24,212.25,162.63,214.06,162.84,214.87z M158.21,205.93c-4,0-6.97,1.16-7.1,3.26c0,1.77,1.36,2.36,3.14,2.36
		C158.21,211.46,158.21,205.93,158.21,205.93z"/>
	<path id="XMLID_112_" class="st3" d="M321.84,214.87h-5.11c-0.03-0.99,0.05-1.43-0.4-2.28c-1.99,2.38-3.53,2.68-6.04,2.68
		c-1.75,0-4.91-1.92-4.91-5.34c0-3.53,1.07-5.09,4.74-6.48c2.06-0.7,4.19-0.37,8-1.02l0.21-0.79c0.37-1.59-0.36-2.89-2.23-3.07
		c-2.41-0.23-3.27,1.47-3.44,2.43l-5.13-0.52c1-3.42,3.47-5.61,9.06-5.61c4.55,0,6.83,2.03,6.83,5.22c0,0.51-0.16,1.66-0.49,3.45
		l-1.45,7.49C321.24,212.25,321.63,214.06,321.84,214.87z M317.21,205.93c-4,0-6.97,1.16-7.1,3.26c0,1.77,1.36,2.36,3.14,2.36
		C317.21,211.46,317.21,205.93,317.21,205.93z"/>
	<path id="XMLID_109_" class="st3" d="M391.98,214.87h-5.11c-0.03-0.99,0.05-1.43-0.4-2.28c-1.99,2.38-3.53,2.68-6.04,2.68
		c-1.75,0-4.91-1.92-4.91-5.34c0-3.53,1.07-5.09,4.74-6.48c2.06-0.7,4.19-0.37,8-1.02l0.21-0.79c0.37-1.59-0.36-2.89-2.23-3.07
		c-2.41-0.23-3.27,1.47-3.44,2.43l-5.13-0.52c1-3.42,3.47-5.61,9.06-5.61c4.55,0,6.83,2.03,6.83,5.22c0,0.51-0.16,1.66-0.49,3.45
		l-1.45,7.49C391.38,212.25,391.77,214.06,391.98,214.87z M387.35,205.93c-4,0-6.97,1.16-7.1,3.26c0,1.77,1.36,2.36,3.14,2.36
		C387.35,211.46,387.35,205.93,387.35,205.93z"/>
	<path id="XMLID_106_" class="st3" d="M474.41,214.87h-5.11c-0.03-0.99,0.05-1.43-0.4-2.28c-1.99,2.38-3.53,2.68-6.04,2.68
		c-1.75,0-4.91-1.92-4.91-5.34c0-3.53,1.07-5.09,4.74-6.48c2.06-0.7,4.19-0.37,8-1.02l0.21-0.79c0.37-1.59-0.36-2.89-2.23-3.07
		c-2.41-0.23-3.27,1.47-3.44,2.43l-5.13-0.52c1-3.42,3.47-5.61,9.06-5.61c4.55,0,6.83,2.03,6.83,5.22c0,0.51-0.16,1.66-0.49,3.45
		l-1.45,7.49C473.81,212.25,474.2,214.06,474.41,214.87z M469.78,205.93c-4,0-6.97,1.16-7.1,3.26c0,1.77,1.36,2.36,3.14,2.36
		C469.78,211.46,469.78,205.93,469.78,205.93z"/>
	<path id="XMLID_103_" class="st3" d="M127.09,195.25h5.23l-0.59,2.83h0.08c1.46-2.14,3.33-3.21,5.62-3.21
		c1.86,0,8.28,1.26,6.96,10.42c-0.53,2.74-2.89,9.78-9.69,9.98c-3.71,0-5.73-3.05-5.73-3.05l-2.19,10.11h-4.99L127.09,195.25z
		 M130.6,204.47c-0.99,4.58,1.49,6.85,3.09,6.85c2.98,0,4.68-2.14,5.49-6.24c0.23-1.16,0.29-5.81-2.52-6.28
		C133.16,198.53,131.34,200.84,130.6,204.47z"/>
	<path id="XMLID_100_" class="st3" d="M269.47,214.98h-5.23l0.59-2.83h-0.08c-1.46,2.14-3.33,3.21-5.62,3.21
		c-1.86,0-8.28-1.26-6.96-10.42c0.53-2.74,2.89-9.78,9.69-9.98c3.71,0,5.73,3.05,5.73,3.05l2.19-10.11h4.99L269.47,214.98z
		 M265.96,205.76c0.99-4.58-1.49-6.85-3.09-6.85c-2.98,0-4.68,2.14-5.49,6.24c-0.23,1.16-0.29,5.81,2.52,6.28
		C263.39,211.71,265.22,209.4,265.96,205.76z"/>
	<path id="XMLID_98_" class="st3" d="M170.7,195.42h5.26l-0.67,3.24l0.08,0c1.59-2.41,3.66-3.62,6.23-3.62
		c2.11,0,5.87,0.68,5.87,4.17c0.02,1.69-3.07,15.61-3.07,15.61h-5.28c0,0,2.93-12.76,3.01-13.16c0.33-1.69-0.81-2.94-2.15-3.01
		c-2.39-0.12-5.11,2.52-5.73,5.73l-2.27,10.44h-5.01L170.7,195.42z"/>
	<path id="XMLID_96_" class="st3" d="M224.86,193l-9.74,21.82h-5.32l-0.87-22.19l-4.21,22.19h-4.86l5.18-26.7h8.18l0.83,18.21
		l8.33-18.21h8l-4.91,26.7h-5.16L224.86,193z"/>
	<path id="XMLID_93_" class="st3" d="M249.57,206.61l-13.24,0.12c0,0,0.04,4.91,3.67,4.95c2.81,0,4.08-1.97,4.25-2.85l4.7,0.83
		c-0.2,1.02-3.75,5.69-8.43,5.69c-9.72,0-9.38-9.29-9.23-10.09c0.46-7.29,6.81-10.79,11.15-10.41
		C251.3,195.56,249.82,205.33,249.57,206.61z M236.82,203.58h8.35c0.07-0.44,0.23-5.04-3.22-5.04
		C238.9,198.54,237.29,201.06,236.82,203.58z"/>
	<path id="XMLID_90_" class="st3" d="M427.25,206.61L414,206.73c0,0,0.04,4.91,3.67,4.95c2.81,0,4.08-1.97,4.25-2.85l4.7,0.83
		c-0.2,1.02-3.75,5.69-8.43,5.69c-9.72,0-9.38-9.29-9.23-10.09c0.46-7.29,6.81-10.79,11.15-10.41
		C428.98,195.56,427.49,205.33,427.25,206.61z M414.5,203.58h8.35c0.07-0.44,0.23-5.04-3.22-5.04
		C416.58,198.54,414.97,201.06,414.5,203.58z"/>
	<path id="XMLID_87_" class="st3" d="M283.36,195.37l-4.11,19.57h-5.2l4.07-19.57H283.36z M284.71,188.13l-0.85,4.54l-5.17,0.07
		l1.01-4.61H284.71z"/>
	<path id="XMLID_85_" class="st3" d="M303.85,201.45l-4.87,0.41c0.08-0.31-0.49-3.18-3.01-3.14c-2.29,0-4.78,2.39-5.49,6.15
		c-0.25,1.35-0.7,5.82,1.94,6.23c2.81,0.37,4.31-1.31,4.99-3.59l5.12,0.74c-0.68,2.38-3.42,7.38-10.24,7.09
		c-2.34,0-8.24-2.35-6.96-10.26c0.95-8.22,8.19-10.27,11.19-10.27C303.9,195.31,303.88,201.12,303.85,201.45z"/>
	<path id="XMLID_83_" class="st3" d="M325.62,214.86l5.54-26.74h5.25l-5.39,26.74H325.62z"/>
	<path id="XMLID_81_" class="st3" d="M399.95,199.17l-2.7-0.01l0.74-3.67h2.83l0.55-3.23l5.66-3.43l-1.24,6.66h3.14l-0.85,3.79
		h-3.11c0,0-2.48,10.05-1.98,11.4c0.37,0.99,3.23,0.54,3.23,0.54l-0.79,3.65c0,0-1.54,0.19-2.52,0.19c-1.68,0-4.64,0.2-5.35-2.71
		C397.24,211.09,399.95,199.17,399.95,199.17z"/>
	<path id="XMLID_79_" class="st3" d="M500,195.47l-14.48,25.29c-2.48,3.55-8.25,1.28-8.25,1.28l0.5-3.71c0,0,1.86,0.41,3.34-0.25
		c1.49-0.66,2.31-3.34,2.31-3.34l-3.22-19.26h5.12l1.86,14.69l7.32-14.69H500z"/>
	<path id="XMLID_78_" class="st3" d="M361.15,200.46l-0.95,4.46h6.85l-0.74,4c0,0-3.42,2.1-7.34,1.73
		c-3.92-0.37-6.35-2.68-5.36-9.78s7.01-8.99,9.61-8.95c2.6,0.04,4.99,1.65,5.57,4.41l5.24-0.49c0,0-0.87-8.13-10.85-8.37
		c-9.98-0.25-13.98,8.95-14.85,13.16c-0.87,4.21,0.04,14.56,9.61,14.64c8.75,0,12.66-3.22,12.66-3.22l2.52-11.59H361.15z"/>
	<polygon id="XMLID_77_" class="st3" points="430.12,195.47 434.74,195.47 436.14,208.26 442.08,195.47 446.95,195.47 
		447.57,208.26 453.43,195.47 458.58,195.47 449.14,214.74 444.19,214.74 443.2,202.57 437.46,214.74 432.56,214.74 	"/>
</g>
</svg>
