<?xml version="1.0" encoding="utf-8"?>
<!-- Generator: Adobe Illustrator 25.3.0, SVG Export Plug-In . SVG Version: 6.00 Build 0)  -->
<svg xmlns:xlink="http://www.w3.org/1999/xlink" version="1.1" id="Layer_1" xmlns="http://www.w3.org/2000/svg" x="0px"
     y="0px"
     viewBox="0 0 500 222.75" style="enable-background:new 0 0 500 222.75;" xml:space="preserve">
<style type="text/css">
	.st0{fill:#E23731;}
	.st1{fill:#25598A;}
	.st2{fill:#FFFFFF;}
	.st3{fill:#211F1F;}
	.st4{fill-rule:evenodd;clip-rule:evenodd;fill:#EB1F26;}
	.st5{clip-path:url(#SVGID_2_);fill:#FFFFFF;}
</style>
  <g>
	<path class="st2" d="M18.66,212.14c-7.27-1.88-21.48-11.93-18.17-11.52c2.99,0.35,8.59-1.11,12.13-2.9
		c8.68-5.13,10.4-7.39,14.6-15.8c2.08-4.16,2.9-11.58,2.9-20.69V57.41V31c0.23-1.82,1.26-3.31,4.84-3.75h26.61l10.9,27.58v3.05
		l0.06,104.55c0,18.88-4.28,30.39-13.51,40.1S36.51,216.74,18.66,212.14L18.66,212.14z"/>
    <path class="st2" d="M185.85,27.25h27.61l0.03,14.24l-43.73,119.32c-2.26,3.81-5.51,5.86-9.79,6.07h-34.38
		c-4.87,0.12-8.12-1.99-9.97-6.16L66.91,27.25h36.81c6.59,1.03,10.9,4.28,13.39,9.29l25.76,85.88l25.82-85.97
		C170.84,31.3,176.29,28.07,185.85,27.25L185.85,27.25z"/>
    <path class="st2" d="M226.71,160.85c0-34.53,0-69.02,0-103.55c14.13,9.12,28.25,9.29,42.41,0.15v103.38
		c-0.91,3.81-3.17,5.57-6.24,6.07H232.6C229.02,166.53,226.91,164.66,226.71,160.85L226.71,160.85z"/>
    <path class="st4" d="M247.9-0.45c16.3,0,29.49,13.22,29.49,29.49c0,16.3-13.19,29.49-29.49,29.49c-16.27,0-29.49-13.19-29.49-29.49
		C218.41,12.77,231.63-0.45,247.9-0.45L247.9-0.45z"/>
    <g>
		<defs>
			<path id="SVGID_1_" d="M247.9-0.45c16.3,0,29.49,13.22,29.49,29.49c0,16.3-13.19,29.49-29.49,29.49
				c-16.27,0-29.49-13.19-29.49-29.49C218.41,12.77,231.63-0.45,247.9-0.45L247.9-0.45z"/>
		</defs>
      <clipPath id="SVGID_2_">
			<use xlink:href="#SVGID_1_" style="overflow:visible;"/>
		</clipPath>
      <path class="st5" d="M238.4,18.66l1.26-0.32v-0.03c3.34-0.67,5.86-1.2,7.42,2.43c1.26,2.99,2.2,6.74,3.08,10.23
			c1.03,4.04,1.67,6.74,1.67,6.77c0.06,0,1.32-2.99,4.34-14.39c1.23-4.69,2.64-8.27,4.95-11.31c2.32-3.08,5.39-6.83,9.55-9.94
			l3.46,7.77c-3.87,2.02-6.39,3.55-8.21,5.95c-1.82,2.43-3.49,4.87-4.57,8.91c-4.02,15.3-5.95,20.19-10.67,19.08
			c-3.08-0.82-4.34-5.86-5.74-11.52l-0.44-1.79c-0.91,3.61-2.11,7.44-3.93,10.76c-4.02,7.33-10.49,11.81-21.72,5.69l2.58-4.72
			c7.53,4.13,11.81,1.23,14.42-3.55c2.4-4.37,3.66-10.32,4.63-14.74l0.15-0.76C240.86,21.36,240.28,19.63,238.4,18.66L238.4,18.66z"
      />
	</g>
    <g>
		<path class="st2" d="M97.96,188.58h5.4l-3.38,16.2c-0.9,4.29-2.08,7.2-3.54,8.72c-1.46,1.52-3.7,2.28-6.73,2.28
			c-2.57,0-4.49-0.59-5.77-1.77c-1.28-1.18-1.92-2.79-1.92-4.82c0-0.43,0.03-0.9,0.09-1.42l5.09-0.55
			c-0.07,0.54-0.11,0.98-0.11,1.33c0,0.85,0.24,1.5,0.73,1.95c0.49,0.45,1.23,0.68,2.24,0.68c1.41,0,2.4-0.41,2.97-1.24
			c0.43-0.63,0.94-2.41,1.55-5.35L97.96,188.58z"/>
      <path class="st2" d="M110.36,201.45l-5.11-0.44c0.58-1.73,1.6-3.08,3.06-4.05c1.45-0.97,3.38-1.46,5.77-1.46
			c2.49,0,4.34,0.5,5.53,1.51c1.19,1,1.79,2.23,1.79,3.68c0,0.58-0.05,1.2-0.16,1.86c-0.1,0.66-0.47,2.38-1.09,5.18
			c-0.51,2.31-0.77,3.93-0.77,4.85c0,0.83,0.15,1.75,0.44,2.76h-5.09c-0.21-0.71-0.34-1.43-0.38-2.19
			c-0.77,0.85-1.65,1.51-2.65,1.96c-1,0.46-2,0.68-3.01,0.68c-1.61,0-2.93-0.53-3.98-1.58c-1.05-1.05-1.57-2.4-1.57-4.06
			c0-1.85,0.58-3.33,1.72-4.43c1.15-1.11,3.2-1.78,6.16-2.01c2.49-0.21,4.16-0.46,5-0.75c0.22-0.73,0.33-1.31,0.33-1.75
			c0-0.56-0.22-1.03-0.67-1.41c-0.45-0.38-1.12-0.57-2.01-0.57c-0.94,0-1.68,0.19-2.22,0.57
			C110.92,200.2,110.55,200.74,110.36,201.45z M115.34,206.3c-0.32,0.08-0.74,0.16-1.26,0.24c-2.63,0.32-4.34,0.78-5.15,1.39
			c-0.57,0.44-0.86,1.03-0.86,1.77c0,0.61,0.22,1.12,0.66,1.54c0.44,0.42,1.02,0.63,1.73,0.63c0.79,0,1.54-0.19,2.24-0.58
			c0.7-0.38,1.22-0.88,1.57-1.48c0.35-0.6,0.65-1.54,0.92-2.82L115.34,206.3z"/>
      <path class="st2" d="M127.38,195.96h4.96l-0.42,1.99c1.06-0.88,2.05-1.5,2.97-1.88s1.92-0.57,2.97-0.57c2.03,0,3.66,0.7,4.9,2.1
			c1.23,1.4,1.85,3.48,1.85,6.26c0,3.49-1.06,6.44-3.19,8.85c-1.82,2.06-3.98,3.08-6.48,3.08c-2.57,0-4.51-1.04-5.82-3.12
			l-2.1,10.05h-5.24L127.38,195.96z M130.54,207.07c0,1.51,0.37,2.68,1.1,3.51c0.74,0.83,1.6,1.25,2.6,1.25
			c0.86,0,1.7-0.31,2.5-0.94c0.8-0.63,1.47-1.67,2-3.12c0.53-1.45,0.79-2.8,0.79-4.04c0-1.45-0.35-2.56-1.04-3.33
			c-0.69-0.77-1.57-1.16-2.65-1.16c-1,0-1.91,0.35-2.73,1.07c-0.82,0.71-1.46,1.76-1.91,3.14S130.54,206.04,130.54,207.07z"/>
      <path class="st2" d="M153.64,201.45l-5.11-0.44c0.58-1.73,1.6-3.08,3.06-4.05c1.45-0.97,3.38-1.46,5.77-1.46
			c2.49,0,4.34,0.5,5.53,1.51c1.19,1,1.79,2.23,1.79,3.68c0,0.58-0.05,1.2-0.16,1.86c-0.1,0.66-0.47,2.38-1.09,5.18
			c-0.51,2.31-0.77,3.93-0.77,4.85c0,0.83,0.15,1.75,0.44,2.76h-5.09c-0.21-0.71-0.34-1.43-0.38-2.19
			c-0.77,0.85-1.65,1.51-2.65,1.96c-1,0.46-2,0.68-3.01,0.68c-1.61,0-2.93-0.53-3.98-1.58c-1.05-1.05-1.57-2.4-1.57-4.06
			c0-1.85,0.58-3.33,1.72-4.43c1.15-1.11,3.2-1.78,6.16-2.01c2.49-0.21,4.16-0.46,5-0.75c0.22-0.73,0.33-1.31,0.33-1.75
			c0-0.56-0.22-1.03-0.67-1.41c-0.45-0.38-1.12-0.57-2.01-0.57c-0.94,0-1.68,0.19-2.22,0.57
			C154.2,200.2,153.83,200.74,153.64,201.45z M158.62,206.3c-0.32,0.08-0.74,0.16-1.26,0.24c-2.63,0.32-4.34,0.78-5.15,1.39
			c-0.57,0.44-0.86,1.03-0.86,1.77c0,0.61,0.22,1.12,0.66,1.54c0.44,0.42,1.02,0.63,1.73,0.63c0.79,0,1.54-0.19,2.24-0.58
			c0.7-0.38,1.22-0.88,1.57-1.48c0.35-0.6,0.65-1.54,0.92-2.82L158.62,206.3z"/>
      <path class="st2" d="M170.89,195.96h4.96l-0.51,2.52c1.24-1.07,2.4-1.83,3.48-2.29c1.08-0.46,2.21-0.68,3.4-0.68
			c1.59,0,2.85,0.46,3.77,1.37c0.92,0.91,1.38,2.12,1.38,3.63c0,0.68-0.2,1.97-0.6,3.87l-2.28,10.97h-5.24l2.3-11
			c0.34-1.64,0.51-2.62,0.51-2.94c0-0.67-0.2-1.2-0.59-1.58c-0.4-0.38-0.95-0.57-1.65-0.57c-0.77,0-1.62,0.32-2.55,0.97
			c-0.94,0.64-1.67,1.5-2.21,2.55c-0.39,0.75-0.83,2.29-1.31,4.62l-1.66,7.96h-5.24L170.89,195.96z"/>
      <path class="st2" d="M215.21,215.34h-5.22l-0.97-22.35l-4.25,22.35h-4.96l5.58-26.75h7.85l0.82,18.74l9.12-18.74h7.94l-5.6,26.75
			h-5.02l5.27-22.19L215.21,215.34z"/>
      <path class="st2" d="M249.45,207.27h-13.14c-0.01,0.21-0.02,0.36-0.02,0.48c0,1.29,0.37,2.33,1.1,3.12
			c0.74,0.79,1.63,1.19,2.69,1.19c1.74,0,3.1-0.9,4.07-2.7l4.69,0.78c-0.91,1.89-2.13,3.3-3.66,4.24c-1.53,0.94-3.24,1.42-5.14,1.42
			c-2.6,0-4.72-0.82-6.35-2.47c-1.63-1.65-2.45-3.83-2.45-6.54c0-2.65,0.74-5.01,2.21-7.08c2.01-2.8,4.87-4.2,8.59-4.2
			c2.37,0,4.26,0.73,5.66,2.2c1.4,1.47,2.1,3.52,2.1,6.16C249.81,205.12,249.69,206.26,249.45,207.27z M245.03,204.08
			c0.01-0.23,0.02-0.41,0.02-0.53c0-1.43-0.32-2.51-0.97-3.23c-0.64-0.72-1.51-1.08-2.59-1.08c-1.08,0-2.05,0.41-2.91,1.22
			c-0.86,0.81-1.44,2.02-1.74,3.61H245.03z"/>
      <path class="st2" d="M269,215.34h-4.96l0.44-2.1c-0.95,0.91-1.88,1.57-2.8,1.96c-0.92,0.4-1.96,0.59-3.11,0.59
			c-2.01,0-3.63-0.68-4.88-2.05c-1.25-1.37-1.87-3.39-1.87-6.07c0-3.1,0.88-5.91,2.63-8.41c1.75-2.51,4.07-3.76,6.95-3.76
			c2.6,0,4.55,1.03,5.86,3.1l2.1-10.02h5.24L269,215.34z M256.91,207.45c0,1.39,0.35,2.47,1.05,3.25c0.7,0.78,1.56,1.17,2.58,1.17
			c0.95,0,1.83-0.33,2.65-0.98c0.82-0.65,1.48-1.65,1.97-2.98c0.49-1.34,0.74-2.62,0.74-3.85c0-1.4-0.38-2.53-1.13-3.39
			c-0.75-0.86-1.62-1.3-2.61-1.3c-1.53,0-2.79,0.85-3.78,2.55C257.4,203.63,256.91,205.47,256.91,207.45z"/>
      <path class="st2"
            d="M277.91,195.96h5.24l-4.05,19.38h-5.24L277.91,195.96z M279.44,188.58h5.24l-0.99,4.74h-5.24L279.44,188.58z"
      />
      <path class="st2" d="M297.27,208.04l5.09,0.82c-0.84,2.26-2.08,3.98-3.72,5.16c-1.64,1.18-3.55,1.77-5.71,1.77
			c-2.47,0-4.43-0.74-5.88-2.21c-1.45-1.47-2.17-3.5-2.17-6.08c0-2.11,0.44-4.09,1.31-5.97c0.88-1.87,2.2-3.35,3.96-4.42
			c1.76-1.08,3.7-1.61,5.8-1.61c2.29,0,4.11,0.6,5.48,1.79c1.36,1.19,2.13,2.76,2.3,4.71l-4.98,0.53c-0.12-1.08-0.45-1.88-0.99-2.39
			c-0.54-0.51-1.25-0.77-2.13-0.77c-1.01,0-1.95,0.38-2.83,1.13c-0.88,0.75-1.55,1.88-2.02,3.39c-0.47,1.5-0.7,2.91-0.7,4.22
			c0,1.14,0.28,2.02,0.84,2.65c0.56,0.62,1.26,0.93,2.1,0.93c0.84,0,1.65-0.3,2.43-0.91C296.22,210.17,296.83,209.25,297.27,208.04z
			"/>
      <path class="st2" d="M312.04,201.45l-5.11-0.44c0.58-1.73,1.6-3.08,3.06-4.05c1.45-0.97,3.38-1.46,5.77-1.46
			c2.49,0,4.34,0.5,5.53,1.51c1.19,1,1.79,2.23,1.79,3.68c0,0.58-0.05,1.2-0.16,1.86c-0.1,0.66-0.47,2.38-1.09,5.18
			c-0.51,2.31-0.77,3.93-0.77,4.85c0,0.83,0.15,1.75,0.44,2.76h-5.09c-0.21-0.71-0.34-1.43-0.38-2.19
			c-0.77,0.85-1.65,1.51-2.65,1.96c-1,0.46-2,0.68-3.01,0.68c-1.61,0-2.93-0.53-3.98-1.58c-1.05-1.05-1.57-2.4-1.57-4.06
			c0-1.85,0.58-3.33,1.72-4.43c1.15-1.11,3.2-1.78,6.16-2.01c2.49-0.21,4.16-0.46,5-0.75c0.22-0.73,0.33-1.31,0.33-1.75
			c0-0.56-0.22-1.03-0.67-1.41c-0.45-0.38-1.12-0.57-2.01-0.57c-0.94,0-1.68,0.19-2.22,0.57
			C312.6,200.2,312.23,200.74,312.04,201.45z M317.02,206.3c-0.32,0.08-0.74,0.16-1.26,0.24c-2.63,0.32-4.34,0.78-5.15,1.39
			c-0.57,0.44-0.86,1.03-0.86,1.77c0,0.61,0.22,1.12,0.66,1.54c0.44,0.42,1.02,0.63,1.73,0.63c0.79,0,1.54-0.19,2.24-0.58
			c0.7-0.38,1.22-0.88,1.57-1.48c0.35-0.6,0.65-1.54,0.92-2.82L317.02,206.3z"/>
      <path class="st2" d="M325.14,215.34l5.6-26.75h5.22l-5.58,26.75H325.14z"/>
      <path class="st2" d="M360.64,201.05h11.97l-2.41,11.48c-1.41,0.91-3.14,1.69-5.19,2.32c-2.05,0.63-4.14,0.95-6.27,0.95
			c-3.31,0-5.85-0.75-7.61-2.24c-2.41-2.04-3.61-5.01-3.61-8.89c0-2.6,0.52-5.1,1.55-7.48c1.24-2.87,3.01-5.1,5.29-6.68
			c2.29-1.58,4.98-2.37,8.07-2.37c3.09,0,5.57,0.72,7.44,2.15c1.87,1.44,3.1,3.53,3.71,6.28l-5.13,0.58
			c-0.45-1.51-1.18-2.65-2.18-3.41c-1-0.77-2.26-1.15-3.79-1.15c-1.78,0-3.41,0.46-4.89,1.39c-1.48,0.92-2.65,2.35-3.48,4.29
			c-0.84,1.93-1.26,4.04-1.26,6.33c0,2.25,0.51,3.91,1.53,4.99c1.02,1.08,2.52,1.61,4.49,1.61c1.18,0,2.39-0.17,3.63-0.5
			c1.24-0.33,2.31-0.73,3.21-1.19l0.82-3.98h-6.83L360.64,201.05z"/>
      <path class="st2" d="M382.39,201.45l-5.11-0.44c0.58-1.73,1.6-3.08,3.06-4.05c1.45-0.97,3.38-1.46,5.77-1.46
			c2.49,0,4.34,0.5,5.53,1.51c1.19,1,1.79,2.23,1.79,3.68c0,0.58-0.05,1.2-0.16,1.86c-0.1,0.66-0.47,2.38-1.09,5.18
			c-0.51,2.31-0.77,3.93-0.77,4.85c0,0.83,0.15,1.75,0.44,2.76h-5.09c-0.21-0.71-0.34-1.43-0.38-2.19
			c-0.77,0.85-1.65,1.51-2.65,1.96c-1,0.46-2,0.68-3.01,0.68c-1.61,0-2.93-0.53-3.98-1.58c-1.05-1.05-1.57-2.4-1.57-4.06
			c0-1.85,0.58-3.33,1.72-4.43c1.15-1.11,3.2-1.78,6.16-2.01c2.49-0.21,4.16-0.46,5-0.75c0.22-0.73,0.33-1.31,0.33-1.75
			c0-0.56-0.22-1.03-0.67-1.41c-0.45-0.38-1.12-0.57-2.01-0.57c-0.94,0-1.68,0.19-2.22,0.57
			C382.96,200.2,382.59,200.74,382.39,201.45z M387.37,206.3c-0.32,0.08-0.74,0.16-1.26,0.24c-2.63,0.32-4.34,0.78-5.15,1.39
			c-0.57,0.44-0.86,1.03-0.86,1.77c0,0.61,0.22,1.12,0.66,1.54c0.44,0.42,1.02,0.63,1.73,0.63c0.79,0,1.54-0.19,2.24-0.58
			c0.7-0.38,1.22-0.88,1.57-1.48c0.35-0.6,0.65-1.54,0.92-2.82L387.37,206.3z"/>
      <path class="st2" d="M396.84,199.84l0.8-3.89h2.55l0.64-3.1l6-3.61l-1.41,6.71h3.19l-0.8,3.89h-3.21l-1.7,8.12
			c-0.3,1.47-0.46,2.31-0.46,2.52c0,0.4,0.13,0.71,0.38,0.94c0.26,0.23,0.72,0.34,1.39,0.34c0.23,0,0.81-0.04,1.73-0.13l-0.82,3.89
			c-0.9,0.18-1.83,0.27-2.77,0.27c-1.85,0-3.19-0.36-4.03-1.07c-0.84-0.71-1.26-1.7-1.26-2.97c0-0.6,0.22-1.97,0.67-4.12l1.62-7.79
			H396.84z"/>
      <path class="st2" d="M426.84,207.27H413.7c-0.01,0.21-0.02,0.36-0.02,0.48c0,1.29,0.37,2.33,1.1,3.12
			c0.74,0.79,1.63,1.19,2.69,1.19c1.74,0,3.1-0.9,4.07-2.7l4.69,0.78c-0.91,1.89-2.13,3.3-3.66,4.24c-1.53,0.94-3.24,1.42-5.14,1.42
			c-2.6,0-4.72-0.82-6.35-2.47c-1.63-1.65-2.45-3.83-2.45-6.54c0-2.65,0.74-5.01,2.21-7.08c2.01-2.8,4.87-4.2,8.59-4.2
			c2.37,0,4.26,0.73,5.66,2.2c1.4,1.47,2.1,3.52,2.1,6.16C427.2,205.12,427.08,206.26,426.84,207.27z M422.42,204.08
			c0.01-0.23,0.02-0.41,0.02-0.53c0-1.43-0.32-2.51-0.97-3.23c-0.64-0.72-1.51-1.08-2.59-1.08c-1.08,0-2.05,0.41-2.91,1.22
			c-0.86,0.81-1.44,2.02-1.74,3.61H422.42z"/>
      <path class="st2" d="M448.74,215.34h-4.93L442.87,203l-5.91,12.33h-4.85l-2.43-19.38h4.65l1.35,12.99l6.04-12.99h4.76l0.66,12.99
			l6-12.99h5.25L448.74,215.34z"/>
      <path class="st2" d="M465.17,201.45l-5.11-0.44c0.58-1.73,1.6-3.08,3.06-4.05c1.45-0.97,3.38-1.46,5.77-1.46
			c2.49,0,4.34,0.5,5.53,1.51c1.19,1,1.79,2.23,1.79,3.68c0,0.58-0.05,1.2-0.16,1.86c-0.1,0.66-0.47,2.38-1.09,5.18
			c-0.51,2.31-0.77,3.93-0.77,4.85c0,0.83,0.15,1.75,0.44,2.76h-5.09c-0.21-0.71-0.34-1.43-0.38-2.19
			c-0.77,0.85-1.65,1.51-2.65,1.96c-1,0.46-2,0.68-3.01,0.68c-1.61,0-2.93-0.53-3.98-1.58c-1.05-1.05-1.57-2.4-1.57-4.06
			c0-1.85,0.58-3.33,1.72-4.43c1.15-1.11,3.2-1.78,6.16-2.01c2.49-0.21,4.16-0.46,5-0.75c0.22-0.73,0.33-1.31,0.33-1.75
			c0-0.56-0.22-1.03-0.67-1.41c-0.45-0.38-1.12-0.57-2.01-0.57c-0.94,0-1.68,0.19-2.22,0.57
			C465.74,200.2,465.37,200.74,465.17,201.45z M470.16,206.3c-0.32,0.08-0.74,0.16-1.26,0.24c-2.63,0.32-4.34,0.78-5.15,1.39
			c-0.57,0.44-0.86,1.03-0.86,1.77c0,0.61,0.22,1.12,0.66,1.54c0.44,0.42,1.02,0.63,1.73,0.63c0.79,0,1.54-0.19,2.24-0.58
			c0.7-0.38,1.22-0.88,1.57-1.48c0.35-0.6,0.65-1.54,0.92-2.82L470.16,206.3z"/>
      <path class="st2" d="M479.93,195.96h5.22l1.31,9.65c0.33,2.48,0.51,4.22,0.55,5.22c0.68-1.98,1.62-4.08,2.81-6.28l4.63-8.6H500
			l-11.97,21.28c-0.99,1.76-1.76,3-2.33,3.71c-0.57,0.7-1.25,1.26-2.04,1.66c-0.8,0.4-1.76,0.6-2.87,0.6c-1.11,0-2.35-0.2-3.74-0.58
			l0.46-3.9c0.63,0.18,1.25,0.27,1.84,0.27c1.61,0,2.93-1.22,3.96-3.65L479.93,195.96z"/>
	</g>
</g>
</svg>
