<?xml version="1.0" encoding="UTF-8"?>
<svg xmlns="http://www.w3.org/2000/svg" version="1.1" width="512px" height="512px"
     style="shape-rendering:geometricPrecision; text-rendering:geometricPrecision; image-rendering:optimizeQuality; fill-rule:evenodd; clip-rule:evenodd"
>
    <g>
        <path style="opacity:0.976" fill="#ffffff"
              d="M 241.5,31.5 C 269.591,28.6126 288.424,40.2793 298,66.5C 303.284,95.7781 292.118,115.611 264.5,126C 233.636,131.326 213.469,119.159 204,89.5C 200.699,59.7349 213.199,40.4016 241.5,31.5 Z"/>
    </g>
    <g>
        <path style="opacity:0.979" fill="#ffffff"
              d="M 223.5,143.5 C 233.506,143.334 243.506,143.5 253.5,144C 267.819,147.326 278.319,155.493 285,168.5C 287.272,173.59 288.606,178.923 289,184.5C 289.03,215.881 289.696,247.214 291,278.5C 293.319,284.473 296.653,289.807 301,294.5C 314.363,307.529 327.363,320.862 340,334.5C 346.853,344.88 351.519,356.213 354,368.5C 361.013,398.235 367.513,428.069 373.5,458C 371.193,474.956 361.526,481.956 344.5,479C 339.822,477.324 335.989,474.491 333,470.5C 321.273,439.987 309.94,409.321 299,378.5C 272.925,356.881 246.759,335.381 220.5,314C 210.009,305.188 203.509,294.021 201,280.5C 201.154,257.494 201.487,234.494 202,211.5C 193.044,218.121 184.377,225.121 176,232.5C 172.254,250.562 168.254,268.562 164,286.5C 158.072,295.147 149.905,298.314 139.5,296C 127.574,291.659 122.741,283.159 125,270.5C 127.925,249.356 131.592,228.356 136,207.5C 139.584,198.909 145.084,191.742 152.5,186C 167.167,175.333 181.833,164.667 196.5,154C 205.178,149.315 214.178,145.815 223.5,143.5 Z"/>
    </g>
    <g>
        <path style="opacity:0.947" fill="#ffffff"
              d="M 302.5,200.5 C 304.193,201.475 305.693,202.808 307,204.5C 309.798,209.263 312.964,213.763 316.5,218C 333.167,227.333 349.833,236.667 366.5,246C 375.833,256.333 375.833,266.667 366.5,277C 360.801,281.129 354.468,282.462 347.5,281C 332.574,275.858 317.574,271.024 302.5,266.5C 302.5,244.5 302.5,222.5 302.5,200.5 Z"/>
    </g>
    <g>
        <path style="opacity:0.966" fill="#ffffff"
              d="M 196.5,310.5 C 212.535,325.696 229.368,340.029 247,353.5C 244.152,373.046 236.819,390.713 225,406.5C 204.167,430 183.333,453.5 162.5,477C 144.101,483.804 133.101,477.637 129.5,458.5C 129.842,456.133 130.342,453.8 131,451.5C 151.087,422.325 171.421,393.325 192,364.5C 194.162,346.555 195.662,328.555 196.5,310.5 Z"/>
    </g>
</svg>
